<?xml version="1.0" encoding="iso-8859-1"?>
<!-- Generator: Adobe Illustrator 18.0.0, SVG Export Plug-In . SVG Version: 6.00 Build 0)  -->
<!DOCTYPE svg PUBLIC "-//W3C//DTD SVG 1.1//EN" "http://www.w3.org/Graphics/SVG/1.1/DTD/svg11.dtd">
<svg version="1.1" id="Capa_1" xmlns="http://www.w3.org/2000/svg" xmlns:xlink="http://www.w3.org/1999/xlink" x="0px" y="0px"
	 viewBox="0 0 446.96 446.96" style="enable-background:new 0 0 446.96 446.96;" xml:space="preserve">
<path d="M370.279,168.929c4.355-8.182,6.361-17.465,5.716-26.904c-1.678-24.58-21.475-44.476-46.049-46.28
	c-4.813-0.353-9.586-0.026-14.239,0.975c-14.696-13.167-43.051-22.531-65.038-28.201c-9.792-2.525-17.018-9.947-19.327-19.853
	c-2.278-9.771,0.862-19.478,8.401-25.965c0.621-0.534,0.914-0.731,0.907-0.731c-0.001,0-0.002,0-0.003,0.001
	c2.251-1.227,3.652-3.585,3.651-6.149c-0.001-2.566-1.405-4.926-3.66-6.15c-14.875-8.076-32.343-11.251-49.188-8.935
	c-17.421,2.393-33.218,10.246-45.684,22.71C126.819,42.396,118.757,69.78,123.832,95.7c-2.894-0.177-5.817-0.103-8.755,0.225
	c-23.918,2.665-42.47,22.053-44.112,46.1c-0.645,9.439,1.36,18.723,5.716,26.905c-24.068,10.797-39.525,35.88-37.652,62.859
	c1.08,15.553,7.893,30.173,19.182,41.166c1.352,1.316,2.757,2.563,4.204,3.746l21.093,149.093c0.405,2.864,2.53,5.185,5.349,5.838
	c44.036,10.219,89.33,15.329,134.625,15.329s90.589-5.109,134.625-15.329c2.818-0.654,4.943-2.974,5.349-5.838l21.093-149.094
	c1.448-1.183,2.853-2.43,4.204-3.746c11.289-10.993,18.102-25.612,19.182-41.166C409.805,204.809,394.348,179.727,370.279,168.929z
	 M77.876,286.051c6.929,2.949,14.363,4.67,21.988,5.007c0.827,0.036,1.654,0.055,2.479,0.06l13.118,131.786
	c-6.277-1.182-12.536-2.456-18.768-3.847L77.876,286.051z M310.568,281.541c6.204,3.842,13.02,6.578,20.126,8.118l-13.502,135.757
	c-6.559,1.065-13.138,2.016-19.733,2.855l9.537-143.579C308.202,283.664,309.395,282.618,310.568,281.541z M283.321,429.894
	c-6.478,0.664-12.967,1.231-19.465,1.679l4.116-124.013c8.475-3.11,16.603-7.12,24.27-11.976L283.321,429.894z M249.822,432.362
	c-6.444,0.289-12.892,0.478-19.343,0.554V315.221c7.94-0.422,15.746-1.558,23.343-3.383L249.822,432.362z M216.48,432.917
	c-6.45-0.077-12.899-0.265-19.343-0.554l-4-120.524c7.597,1.825,15.403,2.961,23.343,3.383V432.917z M178.987,307.559l4.116,124.013
	c-6.498-0.448-12.987-1.015-19.465-1.679l-8.92-134.31C162.385,300.44,170.513,304.449,178.987,307.559z M139.964,284.694
	l9.536,143.578c-6.59-0.839-13.165-1.789-19.72-2.853l-13.513-135.76c7.106-1.54,13.921-4.276,20.125-8.117
	C137.565,282.619,138.759,283.665,139.964,284.694z M350.267,419.058c-6.228,1.39-12.482,2.663-18.755,3.845l13.107-131.784
	c0.825-0.004,1.651-0.024,2.478-0.06c7.625-0.337,15.059-2.058,21.988-5.007L350.267,419.058z M393.965,230.818
	c-0.841,12.115-6.162,23.517-14.981,32.105c-8.819,8.587-20.363,13.612-32.507,14.149c-11.811,0.523-23.034-2.968-32.414-10.097
	c-2.789-2.12-6.72-1.85-9.194,0.633c-21.717,21.8-50.621,33.805-81.389,33.805c-30.767,0-59.672-12.005-81.39-33.805
	c-1.358-1.363-3.154-2.06-4.961-2.06c-1.484,0-2.975,0.47-4.233,1.427c-9.379,7.128-20.594,10.619-32.413,10.096
	c-12.144-0.537-23.688-5.562-32.507-14.149c-8.819-8.588-14.141-19.99-14.981-32.105c-1.63-23.47,13.513-45.099,36.035-51.531
	c1.582-0.452,3.042-1.33,4.006-2.664c1.927-2.667,1.741-6.146-0.205-8.551c-5.717-7.062-8.521-15.974-7.899-25.095
	c1.162-17.009,14.788-31.256,31.696-33.14c0.115-0.013,0.231-0.025,0.346-0.037c6.52-0.667,13.053,1.026,18.597,4.522
	c6.709,4.231,18.51,10.793,34.829,16.553c16.792,5.927,40.865,11.771,70.516,11.771c12.469,0,25.929-1.035,40.241-3.53
	c3.798-0.662,6.612-4.151,6.051-7.966c-0.576-3.918-4.264-6.565-8.139-5.881c-45.22,7.95-81.196,0.372-103.416-7.387
	c-19.41-6.777-32.014-14.867-36.289-17.84c-7.349-23.358-1.068-49.323,16.303-66.695c18.219-18.217,45.569-23.963,69.332-15.392
	c-7.427,9.476-10.144,21.656-7.291,33.89c3.464,14.853,14.755,26.437,29.466,30.23c30.259,7.803,52.537,17.642,61.175,27.014
	c1.867,2.026,4.695,2.898,7.329,2.091c4.273-1.309,8.73-1.804,13.244-1.474c17.668,1.298,31.204,15.662,33.107,33.271
	c3.122,28.877-58.137,90.985-186.17,61.365c-3.835-0.887-7.66,1.56-8.442,5.444c-0.755,3.749,1.816,7.396,5.542,8.255
	c24.81,5.721,46.828,8,66.177,8c36.023,0,62.779-7.907,80.955-16.233c22.618-10.361,36-22.933,41.765-29.22
	C382.189,188.291,395.499,208.739,393.965,230.818z"/>
<g>
</g>
<g>
</g>
<g>
</g>
<g>
</g>
<g>
</g>
<g>
</g>
<g>
</g>
<g>
</g>
<g>
</g>
<g>
</g>
<g>
</g>
<g>
</g>
<g>
</g>
<g>
</g>
<g>
</g>
</svg>
