<?xml version="1.0" encoding="iso-8859-1"?>
<!-- Generator: Adobe Illustrator 19.0.0, SVG Export Plug-In . SVG Version: 6.00 Build 0)  -->
<svg version="1.1" id="Capa_1" xmlns="http://www.w3.org/2000/svg" xmlns:xlink="http://www.w3.org/1999/xlink" x="0px" y="0px"
	 viewBox="0 0 512 512" style="enable-background:new 0 0 512 512;" xml:space="preserve">
<g>
	<g>
		<path d="M511.096,162.79c3.681-17.831-3.886-37.437-22.49-58.273c-2.72-3.046-7.395-3.375-10.494-0.72
			c-3.1,2.658-3.521,7.287-0.925,10.439c0.053,0.067,5.292,6.731,4.171,14.154c-0.727,4.811-4.095,9.289-10.012,13.313
			c-7.365,5.008-10.5,12.129-11.66,18.734c-7.319-4.804-15.716-8.822-25.152-11.968c-24.411-8.137-65.615-9.207-109.238-10.341
			c-53.419-1.388-113.965-2.961-139.549-18.951c-7.086-4.429-15.833-17.33-23.551-28.712c-5.266-7.768-10.323-15.218-15.423-21.229
			c21.144-13.075,50.963-25.235,51.338-25.388c3.032-1.229,4.917-4.282,4.658-7.544c-0.259-3.262-2.602-5.979-5.79-6.714
			c-50.328-11.617-88.178,11.731-99.647,20.052c-11.847-6.258-21.266-8.675-21.911-8.836c-2.377-0.594-4.895,0.01-6.742,1.618
			c-1.849,1.608-2.795,4.018-2.535,6.454c0.16,1.498,1.066,9.417,3.173,18.223C36.796,97.098,2.913,143.147,1.451,145.14
			c-1.438,1.962-1.835,4.499-1.066,6.807L7.4,172.99c3.187,9.563,12.266,16.091,22.243,16.091c0.242,0,0.485-0.004,0.728-0.012
			c0.032-0.001,0.067-0.003,0.1-0.004c2.823,5.014,8.719,16.12,13.368,29.134c0.771,2.159,2.487,3.847,4.658,4.581
			c0.784,0.266,1.596,0.396,2.404,0.396c1.431,0,2.85-0.409,4.079-1.206c1.011-0.656,24.086-15.849,36.582-43.737
			c2.056-0.799,4.075-1.655,6.05-2.571c4.338,7.222,8.071,18.045,12.336,30.429c11.929,34.634,28.153,81.741,76.83,100.706
			l14.872,61.345v68.326l-16.743,38.635c-1.004,2.318-0.774,4.986,0.612,7.099c1.387,2.111,3.743,3.384,6.27,3.384h40.062
			c3.975,0,7.26-3.102,7.488-7.07l9.38-163.558c3.945,0.314,7.929,0.582,11.934,0.747c0.106,0.005,0.211,0.007,0.316,0.007
			c3.999,0,7.321-3.156,7.488-7.189c0.171-4.139-3.044-7.633-7.183-7.804c-3.927-0.163-7.833-0.426-11.696-0.738l0.445-7.756
			c0.237-4.136-2.923-7.681-7.059-7.917c-4.119-0.239-7.68,2.923-7.917,7.058l-8.77,152.919l-10.202-3.401
			c0.375-0.907,0.573-1.879,0.573-2.861v-70.777c0-0.596-0.071-1.188-0.211-1.767l-16.025-66.103
			c-0.602-2.48-2.422-4.484-4.833-5.32c-44.819-15.531-59.585-58.402-71.449-92.849c-4.49-13.037-8.434-24.464-13.524-33.034
			c5.221-3.764,9.757-8.191,13.278-13.396c2.321-3.431,1.421-8.094-2.01-10.414c-3.431-2.32-8.094-1.421-10.414,2.01
			c-5.22,7.716-23.616,25.859-81.566,27.703c-3.675,0.12-7.081-2.279-8.264-5.83l-5.776-17.327
			c7.696-10.216,33.425-43.626,58.696-68.119c0.888,1.873,1.858,3.61,2.919,5.13c1.458,2.089,3.788,3.207,6.155,3.207
			c1.483,0,2.98-0.438,4.288-1.353c3.396-2.371,4.226-7.047,1.854-10.442c-2.865-4.103-5.203-12.254-6.778-19.957
			c8.091,3.5,19.254,9.544,28.954,19.129c5.806,5.736,15.066,6.012,21.083,0.624c0.454-0.407,0.931-0.816,1.421-1.226
			c4.895,5.574,10.184,13.368,15.335,20.967c9.381,13.838,18.243,26.906,28.016,33.016c29.054,18.158,89.069,19.718,147.109,21.226
			c42.475,1.104,82.594,2.146,104.885,9.576c41.29,13.765,49.957,42.126,49.957,63.496c0,14.455-3.501,27.045-6.887,39.223
			c-4.419,15.892-8.989,32.323-5.337,51.799c3.492,18.627,15.555,34.704,20.814,41.005l-12.838,87.011l-13.044-4.348
			c0.243-0.588,0.417-1.201,0.504-1.831l10.684-77.12c0.397-2.867-0.891-5.707-3.311-7.297
			c-66.224-43.518-78.845-84.294-79.032-84.922c-1.127-3.968-5.25-6.285-9.23-5.173c-3.99,1.113-6.321,5.25-5.208,9.239
			c0.155,0.554,1.414,4.845,4.964,11.828c-12.513,3.637-46.19,12.42-86.814,14.784c-4.135,0.24-7.292,3.788-7.052,7.923
			c0.232,3.987,3.538,7.064,7.48,7.064c0.146,0,0.294-0.004,0.442-0.013c47.235-2.749,84.54-13.56,93.77-16.435
			c11.287,17.029,31.865,40.845,68.487,65.604l-9.897,71.447l-16.954,39.123c-1.004,2.318-0.774,4.986,0.612,7.099
			c1.386,2.113,3.743,3.384,6.27,3.384h40.062c3.719,0,6.877-2.726,7.419-6.405l18.029-122.191c0.334-2.267-0.386-4.562-1.955-6.231
			c-0.158-0.168-15.847-17.039-19.46-36.307c-3.01-16.051,0.723-29.474,5.045-45.017c3.656-13.146,7.436-26.74,7.436-43.241
			c0-11.74-2.138-22.523-6.279-32.193C495.628,189.316,507.705,179.215,511.096,162.79z M210.094,454.703l15.293,5.098
			l-0.618,10.786h-21.558L210.094,454.703z M71.094,184.292c-5.662,8.492-12.064,14.993-16.874,19.24
			c-2.536-6.039-5.111-11.349-7.269-15.521C54.571,187.273,62.824,186.104,71.094,184.292z M123.018,67.968
			c-0.052,0.047-0.343,0.065-0.532-0.121c-3.622-3.579-7.402-6.729-11.178-9.493c10.255-6.373,29.977-16.142,55.374-16.857
			C151.572,48.806,133.474,58.604,123.018,67.968z M471.761,470.588h-22.165v-0.001l6.883-15.884l16.799,5.6L471.761,470.588z
			 M496.429,159.641c-2.145,10.621-10.172,17.679-15.299,21.213c-1.98-2.806-4.178-5.479-6.572-8.023
			c-0.632-3.559-1.779-13.964,5.222-18.725c6.539-4.446,11.19-9.565,13.907-15.289C496.8,146.286,497.721,153.244,496.429,159.641z"
			/>
	</g>
</g>
<g>
	<g>
		<path d="M77.689,102.763h-0.08c-4.142,0-7.46,3.357-7.46,7.5c0,4.143,3.398,7.5,7.54,7.5c4.142,0,7.5-3.357,7.5-7.5
			C85.189,106.12,81.831,102.763,77.689,102.763z"/>
	</g>
</g>
<g>
</g>
<g>
</g>
<g>
</g>
<g>
</g>
<g>
</g>
<g>
</g>
<g>
</g>
<g>
</g>
<g>
</g>
<g>
</g>
<g>
</g>
<g>
</g>
<g>
</g>
<g>
</g>
<g>
</g>
</svg>
