<?xml version="1.0" encoding="iso-8859-1"?>
<!-- Generator: Adobe Illustrator 19.0.0, SVG Export Plug-In . SVG Version: 6.00 Build 0)  -->
<svg version="1.1" id="Capa_1" xmlns="http://www.w3.org/2000/svg" xmlns:xlink="http://www.w3.org/1999/xlink" x="0px" y="0px"
	 viewBox="0 0 511.999 511.999" style="enable-background:new 0 0 511.999 511.999;" xml:space="preserve">
<g>
	<g>
		<path d="M504.111,242.743c-6.374-8.433-15.64-13.721-25.898-14.918l-33.983-58.861l-5.397-82.532
			c-0.614-9.389-6.019-17.482-14.459-21.645c-8.439-4.163-18.149-3.529-25.974,1.699l-62.505,41.75
			c-3.143-3.166-7.093-5.52-11.525-6.767c-7.213-2.027-14.943-0.818-21.246,3.312c-3.402-4.344-8.154-7.53-13.736-9.025
			L180.606,66.607c-9.088-2.438-18.489,0.082-25.143,6.736c-6.655,6.655-9.173,16.053-6.737,25.144l2.723,10.164l-49.341-32.806
			c-7.838-5.211-17.549-5.827-25.979-1.643c-8.43,4.181-13.817,12.284-14.411,21.676l-3.587,56.738l-0.607-0.162
			c-9.089-2.436-18.488,0.083-25.143,6.736c-6.655,6.655-9.173,16.053-6.737,25.144l11.591,43.261
			c-11.611,0.318-22.263,5.792-29.354,15.16c-7.395,9.769-9.727,22.142-6.397,33.945c13.674,48.471,50.616,90.733,104.232,119.397
			c1.136,14.287,7.447,27.532,17.941,37.533c11.035,10.518,25.473,16.311,40.653,16.311h183.405c15.18,0,29.618-5.793,40.654-16.311
			c10.491-9.999,16.801-23.24,17.94-37.519c53.542-28.62,90.46-70.82,104.18-119.224
			C513.857,265.005,511.532,252.56,504.111,242.743z M429.971,175.29l30.18,52.273h-52.14c1.768-1.422,2.9-3.599,2.9-6.044
			c-0.002-4.283-3.475-7.756-7.759-7.756c-4.284,0-7.757,3.473-7.757,7.757c0,2.445,1.134,4.622,2.901,6.044h-8.24l8.314-30.095
			c2.235-8.092,0.539-16.496-4.656-23.057c-2.48-3.131-5.613-5.605-9.108-7.303l11.214-19.423c1.901-3.292,5.305-5.257,9.107-5.257
			c3.802,0,7.206,1.965,9.107,5.257l15.917,27.568C429.957,175.267,429.963,175.278,429.971,175.29z M407.018,79.386
			c3.161-2.112,7.084-2.37,10.493-0.686c3.409,1.682,5.592,4.95,5.84,8.743l3.351,51.256c-4.82-7.403-12.853-11.785-21.778-11.785
			c-9.411,0-17.838,4.865-22.543,13.015l-14.524,25.155c-0.375,0.081-0.751,0.163-1.122,0.26l-20.326,5.278l-3.05-45.805
			c-0.06-0.908-0.178-1.804-0.329-2.692L407.018,79.386z M341.326,187.97c0.016-0.004,0.032-0.008,0.048-0.012l29.263-7.599
			c0.759-0.196,1.545-0.313,2.331-0.343c3.273-0.108,6.485,1.38,8.582,4.029c1.228,1.549,3.102,4.818,1.865,9.293l-9.455,34.226
			h-14.563c1.767-1.422,2.899-3.599,2.899-6.043c0-4.284-3.473-7.757-7.757-7.757c-4.284,0-7.757,3.473-7.757,7.757
			c0,2.445,1.134,4.622,2.901,6.044h-67.597c-0.101-4.279-1.269-8.522-3.501-12.389l-5.479-9.49L341.326,187.97z M304.441,122.56
			c0.014-0.009,0.029-0.02,0.043-0.029l7.051-4.722c2.602-1.743,5.667-2.242,8.633-1.408c3.021,0.85,5.487,2.925,6.764,5.695
			c0.54,1.171,0.858,2.433,0.946,3.75l3.246,48.745l-66.067,17.156l-17.826-30.876L304.441,122.56z M266.566,227.564H132.898
			c0.082-1.413,0.47-2.989,1.417-4.632l56.31-97.532c1.901-3.293,5.305-5.258,9.107-5.258c3.802,0,7.206,1.965,9.107,5.258
			l56.31,97.532C266.096,224.574,266.484,226.15,266.566,227.564z M166.433,84.313c2.688-2.689,6.484-3.704,10.157-2.721
			l108.782,29.148c1.875,0.502,3.49,1.445,4.763,2.73l-50.677,33.938l-17.184-29.763c-4.705-8.15-13.133-13.016-22.543-13.016
			s-17.838,4.865-22.543,13.016l-3.387,5.867l-2.809-1.868l-7.281-27.172C162.727,90.798,163.745,87,166.433,84.313z M77.2,96.857
			c0.24-3.794,2.416-7.067,5.822-8.756c3.405-1.69,7.328-1.443,10.494,0.665l72.512,48.208l-22.278,38.586l-70.336-18.846
			L77.2,96.857z M43.351,170.16c2.688-2.689,6.485-3.704,10.158-2.721l9.703,2.6c0.017,0.004,0.034,0.009,0.051,0.013l72.459,19.415
			l-14.842,25.708c-2.232,3.866-3.4,8.11-3.501,12.389H53.289l-12.66-47.247C39.645,176.645,40.663,172.847,43.351,170.16z
			 M495.563,272.656c-12.604,44.469-47.039,83.433-97.126,110.054H183.598c-4.284,0-7.757,3.472-7.757,7.757
			c0,4.285,3.473,7.757,7.757,7.757H390.42c-3.338,20.385-21.471,36.201-42.703,36.201H164.311
			c-21.234,0-39.368-15.817-42.703-36.201h30.962c4.284,0,7.757-3.472,7.757-7.757c0-4.285-3.473-7.757-7.757-7.757h-38.957
			c-50.17-26.661-84.632-65.688-97.196-110.223c-1.998-7.085-0.601-14.509,3.835-20.37c4.348-5.745,10.925-9.039,18.047-9.039h9.009
			c0.008,0,0.017,0.002,0.025,0.002c0.01,0,0.021-0.002,0.031-0.002h79.214c0.03,0,0.06,0,0.09,0h146.154
			c0.013,0,0.027,0.002,0.04,0.002c0.009,0,0.019-0.002,0.028-0.002h106.947c0.01,0,0.02,0.002,0.03,0.002
			c0.008,0,0.017-0.002,0.025-0.002h93.683c0.005,0,0.01,0.001,0.016,0.001s0.01-0.001,0.016-0.001h0.123
			c7.11,0,13.672,3.288,18.005,9.02C496.197,258.002,497.593,265.494,495.563,272.656z"/>
	</g>
</g>
<g>
	<g>
		<circle cx="359.71" cy="147.564" r="7.757"/>
	</g>
</g>
<g>
	<g>
		<circle cx="378.328" cy="118.086" r="7.757"/>
	</g>
</g>
<g>
	<g>
		<circle cx="407.288" cy="103.606" r="7.757"/>
	</g>
</g>
<g>
	<g>
		<circle cx="176.638" cy="96.366" r="7.757"/>
	</g>
</g>
<g>
	<g>
		<circle cx="242.834" cy="121.189" r="7.757"/>
	</g>
</g>
<g>
	<g>
		<circle cx="279.034" cy="176.007" r="7.757"/>
	</g>
</g>
<g>
	<g>
		<circle cx="310.064" cy="165.664" r="7.757"/>
	</g>
</g>
<g>
	<g>
		<circle cx="287.309" cy="152.218" r="7.757"/>
	</g>
</g>
<g>
	<g>
		<circle cx="124.975" cy="157.41" r="7.757"/>
	</g>
</g>
<g>
	<g>
		<circle cx="93.904" cy="146.137" r="7.757"/>
	</g>
</g>
<g>
	<g>
		<circle cx="93.78" cy="118.21" r="7.757"/>
	</g>
</g>
<g>
	<g>
		<circle cx="124.861" cy="133.621" r="7.757"/>
	</g>
</g>
<g>
	<g>
		<circle cx="111.477" cy="211.174" r="7.757"/>
	</g>
</g>
<g>
	<g>
		<circle cx="90.791" cy="190.487" r="7.757"/>
	</g>
</g>
<g>
	<g>
		<circle cx="426.94" cy="204.968" r="7.757"/>
	</g>
</g>
<g>
	<g>
		<circle cx="407.288" cy="180.144" r="7.757"/>
	</g>
</g>
<g>
	<g>
		<circle cx="302.823" cy="215.311" r="7.757"/>
	</g>
</g>
<g>
	<g>
		<circle cx="333.853" cy="203.933" r="7.757"/>
	</g>
</g>
<g>
	<g>
		<circle cx="173.535" cy="194.625" r="7.757"/>
	</g>
</g>
<g>
	<g>
		<circle cx="198.359" cy="155.321" r="7.757"/>
	</g>
</g>
<g>
	<g>
		<circle cx="204.565" cy="215.311" r="7.757"/>
	</g>
</g>
<g>
	<g>
		<circle cx="214.908" cy="184.282" r="7.757"/>
	</g>
</g>
<g>
	<g>
		<circle cx="235.594" cy="215.311" r="7.757"/>
	</g>
</g>
<g>
</g>
<g>
</g>
<g>
</g>
<g>
</g>
<g>
</g>
<g>
</g>
<g>
</g>
<g>
</g>
<g>
</g>
<g>
</g>
<g>
</g>
<g>
</g>
<g>
</g>
<g>
</g>
<g>
</g>
</svg>
