<?xml version="1.0" encoding="UTF-8"?>
<svg xmlns="http://www.w3.org/2000/svg" viewBox="0 0 512 512" width="512" height="512"><g id="outline"><circle cx="100" cy="228" r="12"/><path d="M496,136a32.036,32.036,0,0,0-32-32H440a8,8,0,0,0,0,16h24a16,16,0,0,1,0,32h-5.56A69.542,69.542,0,0,0,426,144H187.845l-4.3-5.377A91.8,91.8,0,0,0,111.506,104H104a8,8,0,0,0-7.428,10.971l15.844,39.608A85.8,85.8,0,0,0,82.188,182.3l-1.813,2.721a120.309,120.309,0,0,1-14.994,18.289l-.35.35a119.816,119.816,0,0,1-31.187,22.478l-13.422,6.711A8,8,0,0,0,16,240v48a8,8,0,0,0,3.562,6.656l14.093,9.395a212.954,212.954,0,0,0,74.383,31.3l20.492,20.492,7.252,43.511-7.371,22.115A8,8,0,0,0,136,432h40a8,8,0,0,0,7.589-5.47l7.821-23.461,7.745-15.491A7.994,7.994,0,0,0,200,384V362.422l10.778-16.166a212.947,212.947,0,0,0,159.609,8.275l5.448,21.8-7.726,46.359A8,8,0,0,0,376,432h32a8,8,0,0,0,6.946-4.031L438.069,387.5l1.294,3.882-14.518,29.036A8,8,0,0,0,432,432h32a8,8,0,0,0,7.155-4.422l24-48a8,8,0,0,0,.273-6.549l-15.169-37.922,15.632-93.792C496.111,240,496,214,496,214a69.74,69.74,0,0,0-19.6-48.5A32.048,32.048,0,0,0,496,136ZM459.056,416H444.944l10.211-20.422a8,8,0,0,0,.434-6.108L448,366.7V322.959L470.423,296.8l-6.314,37.885a7.994,7.994,0,0,0,.463,4.286l14.666,36.665ZM480,228.487a88.057,88.057,0,0,1-21.186,57.27l-24.888,29.036A8,8,0,0,0,432,320v45.875L403.357,416H385.444l6.447-38.685a7.991,7.991,0,0,0-.13-3.255l-8-32a8,8,0,0,0-3.47-4.8,2.176,2.176,0,0,0-.288-.264A72.463,72.463,0,0,1,352,280a8,8,0,0,0-16,0,88.655,88.655,0,0,0,24.54,60.933A196.87,196.87,0,0,1,213.094,329.6l-1.516-.758a8,8,0,0,0-10.234,2.717l-16,24A8,8,0,0,0,184,360v22.111l-7.155,14.311a7.841,7.841,0,0,0-.434,1.048L170.234,416H147.1l4.489-13.47a8,8,0,0,0,.3-3.845l-8-48a8,8,0,0,0-2.234-4.342l-24-24a8.141,8.141,0,0,0-4.128-2.2,197.026,197.026,0,0,1-71-29.408L32,283.719V244.944l9-4.5a135.723,135.723,0,0,0,35.345-25.476l.35-.35a136.287,136.287,0,0,0,16.994-20.728l1.812-2.72a69.863,69.863,0,0,1,22.911-21.6l3.121,7.8A35.828,35.828,0,0,0,154.957,200H176a8,8,0,0,0,0-16H154.957a19.9,19.9,0,0,1-18.57-12.572l-20.522-51.306a75.84,75.84,0,0,1,55.184,28.5l6.7,8.38A8,8,0,0,0,184,160H426a53.646,53.646,0,0,1,24.759,6.035,7.987,7.987,0,0,0,2.919,1.62A54.016,54.016,0,0,1,480,214Z"/></g></svg>
