<svg id="Layer_1" enable-background="new 0 0 512 512" height="512" viewBox="0 0 512 512" width="512" xmlns="http://www.w3.org/2000/svg"><g><path d="m437.02 74.98c-48.353-48.351-112.64-74.98-181.02-74.98s-132.667 26.629-181.02 74.98c-48.351 48.352-74.98 112.64-74.98 181.02 0 43.493 11.122 86.472 32.164 124.288 2.014 3.619 6.581 4.922 10.2 2.907 3.62-2.014 4.921-6.581 2.907-10.2-19.803-35.592-30.271-76.048-30.271-116.995 0-64.374 25.068-124.894 70.587-170.413s106.039-70.587 170.413-70.587c64.373 0 124.894 25.068 170.412 70.587 45.52 45.519 70.588 106.04 70.588 170.413s-25.068 124.894-70.588 170.413c-45.518 45.519-106.039 70.587-170.412 70.587-74.292 0-143.314-33.505-189.369-91.925-2.564-3.252-7.28-3.812-10.533-1.246-3.253 2.564-3.811 7.28-1.247 10.533 48.918 62.05 122.233 97.638 201.149 97.638 68.38 0 132.667-26.629 181.02-74.98 48.351-48.352 74.98-112.64 74.98-181.02s-26.629-132.668-74.98-181.02z"/><path d="m406.095 122.496c-37.551-14.193-76.522-16.961-109.735-7.789-28.571 7.887-52.793 26.6-66.455 51.34-12.918 23.396-15.039 49.25-5.67 69.158 5.818 12.364 15.453 22.526 27.105 29.496-.108 2.616-.17 5.295-.17 8.059v60.915c-3.941-6.109-8.486-11.95-13.478-17.41 4.558-11.425 5.232-24.113 1.589-36.139-4.458-14.715-14.249-26.309-28.313-33.527-18.857-9.678-44.934-10.798-68.058-2.921-36.916 12.575-53.44 36.88-54.125 37.908-1.432 2.149-1.658 4.884-.597 7.238 1.06 2.355 3.257 3.999 5.816 4.351 16.402 2.258 24.986 12.675 34.925 24.736 11.503 13.959 24.541 29.781 51.311 32.99 2.158.259 4.312.387 6.455.387 15.987 0 31.272-7.099 41.833-19.687.439-.524.845-1.067 1.263-1.603 9.442 11.179 16.698 23.892 20.225 36.712.244.888.647 1.686 1.156 2.392v45.906c0 4.143 3.358 7.5 7.5 7.5 4.143 0 7.5-3.357 7.5-7.5v-142.246c0-.434.007-.857.01-1.286 7.106 2.324 14.603 3.568 22.198 3.568 2.026 0 4.062-.089 6.097-.27 28.464-2.522 52.481-22.627 64.247-53.779 1.027-2.722 2.033-5.658 3.075-8.977 1.24-3.952-.959-8.161-4.911-9.401s-8.161.96-9.401 4.911c-.955 3.043-1.869 5.715-2.796 8.168-9.682 25.635-28.948 42.135-51.538 44.137-8.92.792-17.932-.757-26.158-4.134 4.972-49.666 30.913-63.741 32.231-64.424 3.678-1.847 5.183-6.318 3.36-10.017-1.831-3.715-6.323-5.246-10.043-3.412-1.477.728-32.011 16.423-39.65 69.633-6.398-5.043-11.663-11.389-15.084-18.66-7.326-15.567-5.371-36.323 5.229-55.521 11.722-21.228 32.613-37.313 57.316-44.132 26.484-7.311 57.201-6.189 87.712 3.036-10.448 9.183-18.711 19.386-24.645 30.456-1.957 3.65-.584 8.196 3.067 10.153 1.128.604 2.341.891 3.536.891 2.676 0 5.265-1.435 6.617-3.958 6.794-12.674 17.288-24.142 31.191-34.085 2.649-1.78 3.928-4.954 3.223-7.903-.924-3.861-4.736-5.186-4.96-5.26zm-224.07 213.513c-20.802-2.494-30.866-14.707-41.52-27.637-8.271-10.037-17.417-21.137-31.926-26.825 7.231-7.099 20.012-17.145 39.168-23.67 19.407-6.612 41.008-5.817 56.372 2.066 10.509 5.394 17.51 13.647 20.807 24.532 2.008 6.627 2.196 13.54.721 20.129-15.66-13.41-34.039-23.012-52.072-25.939-4.094-.659-7.941 2.113-8.605 6.202-.664 4.088 2.113 7.94 6.202 8.604 16.547 2.686 33.783 12.322 48.099 25.541-.702 1.006-1.436 1.996-2.236 2.948-8.839 10.537-21.603 15.657-35.01 14.049z"/></g></svg>