<?xml version="1.0" encoding="iso-8859-1"?>
<!-- Generator: Adobe Illustrator 19.0.0, SVG Export Plug-In . SVG Version: 6.00 Build 0)  -->
<svg version="1.1" id="Capa_1" xmlns="http://www.w3.org/2000/svg" xmlns:xlink="http://www.w3.org/1999/xlink" x="0px" y="0px"
	 viewBox="0 0 480 480" style="enable-background:new 0 0 480 480;" xml:space="preserve">
<g>
	<g>
		<path d="M424,47.999c-30.88,0-56,32.296-56,72c0,27.904,12.672,53.288,32,65.048v222.952c0,13.232,10.768,24,24,24
			s24-10.768,24-24V185.047c19.328-11.76,32-37.144,32-65.048C480,80.295,454.88,47.999,424,47.999z M436.584,173.047
			c-2.8,1.32-4.584,4.136-4.584,7.232v227.72c0,4.416-3.592,8-8,8c-4.408,0-8-3.584-8-8v-227.72c0-3.096-1.784-5.912-4.584-7.232
			c-16.4-7.744-27.416-29.064-27.416-53.048c0-30.872,17.944-56,40-56c22.056,0,40,25.128,40,56
			C464,143.983,452.984,165.303,436.584,173.047z"/>
	</g>
</g>
<g>
	<g>
		<path d="M88,47.999c-6.144,0-11.752,2.32-16,6.128c-4.248-3.808-9.856-6.128-16-6.128s-11.752,2.32-16,6.128
			c-4.248-3.808-9.856-6.128-16-6.128c-13.232,0-24,10.768-24,24v80c0,13.232,10.768,24,24,24h8v232c0,13.232,10.768,24,24,24
			s24-10.768,24-24v-232h8c13.232,0,24-10.768,24-24v-80C112,58.767,101.232,47.999,88,47.999z M96,151.999c0,4.416-3.592,8-8,8H72
			c-4.416,0-8,3.576-8,8v240c0,4.416-3.592,8-8,8s-8-3.584-8-8v-240c0-4.424-3.584-8-8-8H24c-4.408,0-8-3.584-8-8v-80
			c0-4.416,3.592-8,8-8s8,3.584,8,8v48c0,4.424,3.584,8,8,8s8-3.576,8-8v-48c0-4.416,3.592-8,8-8s8,3.584,8,8v48
			c0,4.424,3.584,8,8,8s8-3.576,8-8v-48c0-4.416,3.592-8,8-8s8,3.584,8,8V151.999z"/>
	</g>
</g>
<g>
	<g>
		<path d="M344.424,296.471c-2.24-0.232-55.24-5.536-85.704,24.928c-4.248,4.248-7.744,8.968-10.712,13.896v-47.344
			c1.304,0.04,2.752,0.064,4.336,0.064c17.736,0,52-3.176,74.256-25.432c30.472-30.48,25.168-83.472,24.92-85.704
			c-0.4-3.744-3.352-6.704-7.096-7.104c-2.24-0.232-55.232-5.544-85.704,24.92c-4.248,4.256-7.744,8.968-10.712,13.896v-20.952
			c9.744-8.704,40-38.696,40-75.656c0-43.096-41.224-76.816-42.984-78.224c-2.928-2.36-7.112-2.36-10.04,0
			C233.224,35.183,192,68.903,192,111.999c0,36.96,30.256,66.952,40,75.656v20.952c-2.968-4.928-6.464-9.648-10.712-13.896
			c-30.472-30.48-83.472-25.16-85.704-24.92c-3.744,0.4-6.696,3.36-7.096,7.104c-0.24,2.232-5.552,55.224,24.92,85.704
			c22.256,22.256,56.52,25.432,74.256,25.432c1.592,0,3.032-0.024,4.336-0.064v47.344c-2.968-4.928-6.464-9.64-10.712-13.896
			c-30.472-30.48-83.464-25.16-85.704-24.928c-3.744,0.4-6.696,3.36-7.096,7.104c-0.24,2.232-5.552,55.224,24.92,85.712
			c22.248,22.248,56.496,25.424,74.24,25.424c1.6,0,3.048-0.024,4.36-0.064v33.336h16v-33.36c1.312,0.04,2.76,0.064,4.36,0.064
			c17.736,0.008,51.984-3.176,74.232-25.416c30.472-30.488,25.168-83.48,24.92-85.712
			C351.12,299.831,348.168,296.871,344.424,296.471z M270.024,206.023c19.336-19.336,51.912-20.928,65.944-20.672
			c0.304,14.016-1.28,46.52-20.68,65.928c-19.336,19.328-51.968,20.88-65.944,20.68
			C249.032,257.943,250.624,225.431,270.024,206.023z M230.648,271.959c-14.048,0.24-46.6-1.352-65.936-20.68
			c-19.336-19.336-20.952-51.912-20.664-65.936c13.944-0.352,46.52,1.272,65.928,20.68
			C229.304,225.359,230.928,257.919,230.648,271.959z M230.648,398.655c-14.032,0.36-46.528-1.28-65.936-20.68
			c-19.336-19.336-20.952-51.92-20.664-65.944c13.96-0.344,46.52,1.28,65.928,20.688
			C229.312,352.055,230.936,384.631,230.648,398.655z M245.144,167.999h-10.296c-10.96-11.712-26.848-32.688-26.848-56
			c0-27.336,21.872-51.504,32-61.232c10.128,9.728,32,33.896,32,61.232C272,135.311,256.112,156.287,245.144,167.999z
			 M315.288,377.975c-19.336,19.336-51.928,20.888-65.944,20.672c-0.312-14.016,1.28-46.52,20.68-65.928
			c19.328-19.328,51.944-20.92,65.928-20.68C336.24,326.079,334.608,358.647,315.288,377.975z"/>
	</g>
</g>
<g>
	<g>
		<path d="M124.696,29.511c-4.68,2.576-9.328,5.336-13.8,8.2l8.64,13.472c4.192-2.688,8.48-5.24,12.864-7.64L124.696,29.511z"/>
	</g>
</g>
<g>
	<g>
		<path d="M232.048,0.135l0.536,15.984c4.968-0.168,10-0.152,14.976,0.008l0.536-15.984C242.76-0.041,237.384-0.049,232.048,0.135z"
			/>
	</g>
</g>
<g>
	<g>
		<path d="M216.048,1.183c-5.304,0.528-10.656,1.24-15.912,2.128l2.648,15.784c4.896-0.824,9.848-1.488,14.848-1.984L216.048,1.183z
			"/>
	</g>
</g>
<g>
	<g>
		<path d="M264.096,1.199l-1.584,15.92c5,0.496,9.944,1.168,14.832,1.984L280,3.327C274.744,2.447,269.392,1.735,264.096,1.199z"/>
	</g>
</g>
<g>
	<g>
		<path d="M184.408,6.495c-5.168,1.224-10.376,2.656-15.48,4.232l4.736,15.28c4.752-1.472,9.568-2.792,14.448-3.952L184.408,6.495z"
			/>
	</g>
</g>
<g>
	<g>
		<path d="M295.72,6.519l-3.712,15.56c4.872,1.168,9.68,2.488,14.432,3.96l4.76-15.28C306.144,9.191,300.936,7.767,295.72,6.519z"/>
	</g>
</g>
<g>
	<g>
		<path d="M153.776,15.999c-4.976,1.912-9.944,4.024-14.768,6.264l6.744,14.512c4.512-2.096,9.104-4.048,13.776-5.856
			L153.776,15.999z"/>
	</g>
</g>
<g>
	<g>
		<path d="M355.424,29.591l-7.728,14.008c4.384,2.416,8.68,4.968,12.88,7.656l8.624-13.48
			C364.704,34.903,360.112,32.175,355.424,29.591z"/>
	</g>
</g>
<g>
	<g>
		<path d="M326.344,16.047l-5.768,14.92c4.664,1.808,9.256,3.76,13.768,5.856l6.768-14.496
			C336.312,20.087,331.344,17.975,326.344,16.047z"/>
	</g>
</g>
<g>
	<g>
		<path d="M145.656,443.175l-6.768,14.496c4.8,2.24,9.768,4.352,14.768,6.28l5.768-14.92
			C154.76,447.223,150.168,445.271,145.656,443.175z"/>
	</g>
</g>
<g>
	<g>
		<path d="M277.208,460.895c-4.888,0.832-9.848,1.496-14.848,1.992l1.584,15.92c5.304-0.528,10.656-1.24,15.912-2.128
			L277.208,460.895z"/>
	</g>
</g>
<g>
	<g>
		<path d="M119.424,428.735l-8.624,13.488c4.496,2.872,9.088,5.6,13.776,8.184l7.728-14.016
			C127.92,433.975,123.624,431.423,119.424,428.735z"/>
	</g>
</g>
<g>
	<g>
		<path d="M173.568,453.951l-4.76,15.28c5.056,1.568,10.264,3,15.48,4.24l3.712-15.56
			C183.128,456.743,178.32,455.423,173.568,453.951z"/>
	</g>
</g>
<g>
	<g>
		<path d="M247.416,463.879c-4.976,0.16-10.008,0.152-14.984-0.008l-0.528,15.984c2.688,0.096,5.392,0.144,8.096,0.144
			c2.664,0,5.312-0.04,7.952-0.136L247.416,463.879z"/>
	</g>
</g>
<g>
	<g>
		<path d="M360.464,428.815c-4.192,2.688-8.48,5.24-12.864,7.64l7.704,14.032c4.68-2.576,9.328-5.336,13.8-8.2L360.464,428.815z"/>
	</g>
</g>
<g>
	<g>
		<path d="M202.648,460.895L200,476.671c5.248,0.88,10.6,1.592,15.896,2.128l1.584-15.92
			C212.48,462.383,207.536,461.711,202.648,460.895z"/>
	</g>
</g>
<g>
	<g>
		<path d="M306.336,453.991c-4.752,1.472-9.568,2.792-14.448,3.952l3.704,15.56c5.168-1.224,10.376-2.656,15.48-4.232
			L306.336,453.991z"/>
	</g>
</g>
<g>
	<g>
		<path d="M334.248,443.223c-4.512,2.096-9.104,4.048-13.776,5.856l5.752,14.92c4.976-1.912,9.944-4.024,14.768-6.264
			L334.248,443.223z"/>
	</g>
</g>
<g>
</g>
<g>
</g>
<g>
</g>
<g>
</g>
<g>
</g>
<g>
</g>
<g>
</g>
<g>
</g>
<g>
</g>
<g>
</g>
<g>
</g>
<g>
</g>
<g>
</g>
<g>
</g>
<g>
</g>
</svg>
